STARTFONT 2.1
COMMENT  
COMMENT  WARNING:  This bdf file was generated from a pcf file using
COMMENT  pcftobdf.  The resulting font is subject to the same copyright,
COMMENT  license, and trademark restrictions as the original font.  The
COMMENT  authors and distributors of fstobdf disclaim all liability for
COMMENT  misuse of the program or its output.
COMMENT  
FONT --Kapl-Gallant-R-Normal--19-190-72-72-M--iso8859-1
SIZE 19 72 72
FONTBOUNDINGBOX 12 20 0 -5

STARTPROPERTIES 20
FONTNAME_REGISTRY ""
FAMILY_NAME "Kapl"
FOUNDRY ""
WEIGHT_NAME "Gallant"
SLANT "R"
SETWIDTH_NAME "Normal"
ADD_STYLE_NAME ""
PIXEL_SIZE 19
POINT_SIZE 190
RESOLUTION_X 72
RESOLUTION_Y 72
SPACING "M"
AVERAGE_WIDTH 80
CHARSET_REGISTRY "ISO8859"
CHARSET_ENCODING "1"
CHARSET_COLLECTIONS "ASCII ISO8859-1"
FULL_NAME "Kapl"
DEFAULT_CHAR 0
FONT_ASCENT 15
FONT_DESCENT 5
ENDPROPERTIES


CHARS 255
STARTCHAR <unknown>
ENCODING 1
SWIDTH 42 0
DWIDTH 0 0
BBX 0 0 0 0
BITMAP
ENDCHAR
STARTCHAR <unknown>
ENCODING 2
SWIDTH 42 0
DWIDTH 0 0
BBX 0 0 0 0
BITMAP
ENDCHAR
STARTCHAR <unknown>
ENCODING 3
SWIDTH 42 0
DWIDTH 0 0
BBX 0 0 0 0
BITMAP
ENDCHAR
STARTCHAR <unknown>
ENCODING 4
SWIDTH 42 0
DWIDTH 0 0
BBX 0 0 0 0
BITMAP
ENDCHAR
STARTCHAR <unknown>
ENCODING 5
SWIDTH 42 0
DWIDTH 0 0
BBX 0 0 0 0
BITMAP
ENDCHAR
STARTCHAR <unknown>
ENCODING 6
SWIDTH 42 0
DWIDTH 0 0
BBX 0 0 0 0
BITMAP
ENDCHAR
STARTCHAR <unknown>
ENCODING 7
SWIDTH 42 0
DWIDTH 0 0
BBX 0 0 0 0
BITMAP
ENDCHAR
STARTCHAR <unknown>
ENCODING 8
SWIDTH 42 0
DWIDTH 0 0
BBX 0 0 0 0
BITMAP
ENDCHAR
STARTCHAR <unknown>
ENCODING 9
SWIDTH 42 0
DWIDTH 0 0
BBX 0 0 0 0
BITMAP
ENDCHAR
STARTCHAR <unknown>
ENCODING 10
SWIDTH 42 0
DWIDTH 0 0
BBX 0 0 0 0
BITMAP
ENDCHAR
STARTCHAR <unknown>
ENCODING 11
SWIDTH 42 0
DWIDTH 0 0
BBX 0 0 0 0
BITMAP
ENDCHAR
STARTCHAR <unknown>
ENCODING 12
SWIDTH 42 0
DWIDTH 0 0
BBX 0 0 0 0
BITMAP
ENDCHAR
STARTCHAR <unknown>
ENCODING 13
SWIDTH 42 0
DWIDTH 0 0
BBX 0 0 0 0
BITMAP
ENDCHAR
STARTCHAR <unknown>
ENCODING 14
SWIDTH 42 0
DWIDTH 0 0
BBX 0 0 0 0
BITMAP
ENDCHAR
STARTCHAR <unknown>
ENCODING 15
SWIDTH 42 0
DWIDTH 0 0
BBX 0 0 0 0
BITMAP
ENDCHAR
STARTCHAR <unknown>
ENCODING 16
SWIDTH 42 0
DWIDTH 12 0
BBX 7 11 5 -5
BITMAP
fe
fe
c0
c0
c0
c0
c0
c0
c0
c0
c0
ENDCHAR
STARTCHAR <unknown>
ENCODING 17
SWIDTH 42 0
DWIDTH 12 0
BBX 12 11 0 -5
BITMAP
fff0
fff0
0600
0600
0600
0600
0600
0600
0600
0600
0600
ENDCHAR
STARTCHAR <unknown>
ENCODING 18
SWIDTH 42 0
DWIDTH 12 0
BBX 7 11 0 -5
BITMAP
fe
fe
06
06
06
06
06
06
06
06
06
ENDCHAR
STARTCHAR <unknown>
ENCODING 19
SWIDTH 42 0
DWIDTH 12 0
BBX 7 20 5 -5
BITMAP
c0
c0
c0
c0
c0
c0
c0
c0
c0
fe
fe
c0
c0
c0
c0
c0
c0
c0
c0
c0
ENDCHAR
STARTCHAR <unknown>
ENCODING 20
SWIDTH 42 0
DWIDTH 12 0
BBX 12 20 0 -5
BITMAP
0600
0600
0600
0600
0600
0600
0600
0600
0600
fff0
fff0
0600
0600
0600
0600
0600
0600
0600
0600
0600
ENDCHAR
STARTCHAR <unknown>
ENCODING 21
SWIDTH 42 0
DWIDTH 12 0
BBX 7 20 0 -5
BITMAP
06
06
06
06
06
06
06
06
06
fe
fe
06
06
06
06
06
06
06
06
06
ENDCHAR
STARTCHAR <unknown>
ENCODING 22
SWIDTH 42 0
DWIDTH 12 0
BBX 7 11 5 4
BITMAP
c0
c0
c0
c0
c0
c0
c0
c0
c0
fe
fe
ENDCHAR
STARTCHAR <unknown>
ENCODING 23
SWIDTH 42 0
DWIDTH 12 0
BBX 12 11 0 4
BITMAP
0600
0600
0600
0600
0600
0600
0600
0600
0600
fff0
fff0
ENDCHAR
STARTCHAR <unknown>
ENCODING 24
SWIDTH 42 0
DWIDTH 12 0
BBX 7 11 0 4
BITMAP
06
06
06
06
06
06
06
06
06
fe
fe
ENDCHAR
STARTCHAR <unknown>
ENCODING 25
SWIDTH 42 0
DWIDTH 12 0
BBX 2 20 5 -5
BITMAP
c0
c0
c0
c0
c0
c0
c0
c0
c0
c0
c0
c0
c0
c0
c0
c0
c0
c0
c0
c0
ENDCHAR
STARTCHAR <unknown>
ENCODING 26
SWIDTH 42 0
DWIDTH 12 0
BBX 12 2 0 4
BITMAP
fff0
fff0
ENDCHAR
STARTCHAR <unknown>
ENCODING 27
SWIDTH 42 0
DWIDTH 0 0
BBX 0 0 0 0
BITMAP
ENDCHAR
STARTCHAR <unknown>
ENCODING 28
SWIDTH 42 0
DWIDTH 0 0
BBX 0 0 0 0
BITMAP
ENDCHAR
STARTCHAR <unknown>
ENCODING 29
SWIDTH 42 0
DWIDTH 0 0
BBX 0 0 0 0
BITMAP
ENDCHAR
STARTCHAR <unknown>
ENCODING 30
SWIDTH 42 0
DWIDTH 0 0
BBX 0 0 0 0
BITMAP
ENDCHAR
STARTCHAR <unknown>
ENCODING 31
SWIDTH 42 0
DWIDTH 0 0
BBX 0 0 0 0
BITMAP
ENDCHAR
STARTCHAR <unknown>
ENCODING 32
SWIDTH 42 0
DWIDTH 12 0
BBX 0 0 0 0
BITMAP
ENDCHAR
STARTCHAR <unknown>
ENCODING 33
SWIDTH 42 0
DWIDTH 12 0
BBX 2 14 4 0
BITMAP
c0
c0
c0
c0
c0
c0
c0
c0
c0
c0
c0
00
c0
c0
ENDCHAR
STARTCHAR <unknown>
ENCODING 34
SWIDTH 42 0
DWIDTH 12 0
BBX 7 4 3 10
BITMAP
c6
c6
c6
84
ENDCHAR
STARTCHAR <unknown>
ENCODING 35
SWIDTH 42 0
DWIDTH 12 0
BBX 11 13 0 0
BITMAP
18c0
18c0
18c0
3180
ffe0
3180
3180
ffe0
3180
6300
6300
6300
6300
ENDCHAR
STARTCHAR <unknown>
ENCODING 36
SWIDTH 42 0
DWIDTH 12 0
BBX 9 16 1 -1
BITMAP
1400
7e00
f700
d580
d400
d400
7400
3e00
1f00
1580
1580
d580
d580
f700
7e00
1400
ENDCHAR
STARTCHAR <unknown>
ENCODING 37
SWIDTH 42 0
DWIDTH 12 0
BBX 12 14 0 0
BITMAP
7fe0
7860
ccc0
cd80
cd00
7b00
0600
0c00
19e0
1b30
3330
6330
c1e0
c1c0
ENDCHAR
STARTCHAR <unknown>
ENCODING 38
SWIDTH 42 0
DWIDTH 12 0
BBX 11 14 0 0
BITMAP
1e00
6100
6080
6180
6300
3e00
7c00
d8e0
cc40
cec0
c780
c3a0
67a0
3ec0
ENDCHAR
STARTCHAR <unknown>
ENCODING 39
SWIDTH 42 0
DWIDTH 12 0
BBX 2 5 5 10
BITMAP
c0
c0
c0
c0
c0
ENDCHAR
STARTCHAR <unknown>
ENCODING 40
SWIDTH 42 0
DWIDTH 12 0
BBX 6 17 5 -2
BITMAP
04
18
30
60
60
c0
c0
c0
c0
c0
c0
c0
60
60
30
18
04
ENDCHAR
STARTCHAR <unknown>
ENCODING 41
SWIDTH 42 0
DWIDTH 12 0
BBX 6 17 1 -2
BITMAP
80
60
30
18
18
0c
0c
0c
0c
0c
0c
0c
18
18
30
60
80
ENDCHAR
STARTCHAR <unknown>
ENCODING 42
SWIDTH 42 0
DWIDTH 12 0
BBX 9 11 1 3
BITMAP
0800
0800
0800
0800
ff80
7f00
1c00
1c00
3600
6300
4100
ENDCHAR
STARTCHAR <unknown>
ENCODING 43
SWIDTH 42 0
DWIDTH 12 0
BBX 10 10 1 3
BITMAP
0c00
0c00
0c00
0c00
ffc0
ffc0
0c00
0c00
0c00
0c00
ENDCHAR
STARTCHAR <unknown>
ENCODING 44
SWIDTH 42 0
DWIDTH 12 0
BBX 4 8 3 -5
BITMAP
60
f0
f0
30
30
60
c0
80
ENDCHAR
STARTCHAR <unknown>
ENCODING 45
SWIDTH 42 0
DWIDTH 12 0
BBX 10 2 1 7
BITMAP
ffc0
ffc0
ENDCHAR
STARTCHAR <unknown>
ENCODING 46
SWIDTH 42 0
DWIDTH 12 0
BBX 4 4 3 0
BITMAP
60
f0
f0
60
ENDCHAR
STARTCHAR <unknown>
ENCODING 47
SWIDTH 42 0
DWIDTH 12 0
BBX 10 15 1 0
BITMAP
00c0
0180
0180
0300
0300
0600
0600
0c00
1800
1800
3000
3000
6000
6000
c000
ENDCHAR
STARTCHAR <unknown>
ENCODING 48
SWIDTH 42 0
DWIDTH 12 0
BBX 8 15 2 0
BITMAP
1c
3e
46
43
c3
c3
c3
c3
c3
c3
c3
c2
62
7c
38
ENDCHAR
STARTCHAR <unknown>
ENCODING 49
SWIDTH 42 0
DWIDTH 12 0
BBX 8 15 2 0
BITMAP
08
18
38
78
d8
18
18
18
18
18
18
18
18
18
ff
ENDCHAR
STARTCHAR <unknown>
ENCODING 50
SWIDTH 42 0
DWIDTH 12 0
BBX 10 15 1 0
BITMAP
3e00
7f00
c380
8180
0180
0180
0180
0300
0600
0c00
1800
3000
6040
ffc0
ffc0
ENDCHAR
STARTCHAR <unknown>
ENCODING 51
SWIDTH 42 0
DWIDTH 12 0
BBX 10 15 1 0
BITMAP
1f00
3f80
41c0
80c0
00c0
01c0
0f80
1f80
01c0
00c0
00c0
80c0
c080
7f00
3e00
ENDCHAR
STARTCHAR <unknown>
ENCODING 52
SWIDTH 42 0
DWIDTH 12 0
BBX 10 15 1 0
BITMAP
0300
0700
0700
0b00
0b00
1300
1300
2300
2300
4300
7fc0
ffc0
0300
0300
0300
ENDCHAR
STARTCHAR <unknown>
ENCODING 53
SWIDTH 42 0
DWIDTH 12 0
BBX 10 15 1 0
BITMAP
1f80
1f80
2000
2000
4000
7f00
6380
01c0
00c0
00c0
00c0
80c0
c0c0
6180
3f00
ENDCHAR
STARTCHAR <unknown>
ENCODING 54
SWIDTH 42 0
DWIDTH 12 0
BBX 10 15 1 0
BITMAP
0e00
1800
3000
6000
6000
c000
cf00
df80
e1c0
c0c0
c0c0
c0c0
e080
7f00
3e00
ENDCHAR
STARTCHAR <unknown>
ENCODING 55
SWIDTH 42 0
DWIDTH 12 0
BBX 10 15 1 0
BITMAP
3fc0
7fc0
c080
0080
0180
0100
0100
0300
0200
0200
0600
0400
0400
0c00
0800
ENDCHAR
STARTCHAR <unknown>
ENCODING 56
SWIDTH 42 0
DWIDTH 12 0
BBX 8 15 2 0
BITMAP
3c
46
c3
c3
c3
62
34
18
2c
46
c3
c3
c3
62
3c
ENDCHAR
STARTCHAR <unknown>
ENCODING 57
SWIDTH 42 0
DWIDTH 12 0
BBX 10 15 1 0
BITMAP
1f00
2380
41c0
c0c0
c0c0
c0c0
e1c0
7ec0
3cc0
00c0
0180
0180
0300
0e00
7800
ENDCHAR
STARTCHAR <unknown>
ENCODING 58
SWIDTH 42 0
DWIDTH 12 0
BBX 4 9 3 -1
BITMAP
60
f0
f0
60
00
60
f0
f0
60
ENDCHAR
STARTCHAR <unknown>
ENCODING 59
SWIDTH 42 0
DWIDTH 12 0
BBX 4 13 3 -5
BITMAP
60
f0
f0
60
00
60
f0
f0
30
30
60
c0
80
ENDCHAR
STARTCHAR <unknown>
ENCODING 60
SWIDTH 42 0
DWIDTH 12 0
BBX 10 10 1 3
BITMAP
00c0
0380
0e00
3c00
f000
f000
3c00
0e00
0380
00c0
ENDCHAR
STARTCHAR <unknown>
ENCODING 61
SWIDTH 42 0
DWIDTH 12 0
BBX 10 6 1 4
BITMAP
ffc0
ffc0
0000
0000
ffc0
ffc0
ENDCHAR
STARTCHAR <unknown>
ENCODING 62
SWIDTH 42 0
DWIDTH 12 0
BBX 10 10 1 3
BITMAP
c000
7000
3c00
0f00
03c0
03c0
0f00
3c00
7000
c000
ENDCHAR
STARTCHAR <unknown>
ENCODING 63
SWIDTH 42 0
DWIDTH 12 0
BBX 9 15 1 -1
BITMAP
1e00
7700
e380
c180
0180
0180
0180
0700
1e00
1800
1800
1800
0000
1800
1800
ENDCHAR
STARTCHAR <unknown>
ENCODING 64
SWIDTH 42 0
DWIDTH 12 0
BBX 12 13 0 0
BITMAP
1f00
30c0
6060
c790
8fd0
b190
b190
b190
b190
b310
9fb0
4060
3f80
ENDCHAR
STARTCHAR <unknown>
ENCODING 65
SWIDTH 42 0
DWIDTH 12 0
BBX 12 14 0 0
BITMAP
0600
0600
0b00
0b00
0900
1180
1180
1080
3fc0
20c0
2040
4060
4060
e0f0
ENDCHAR
STARTCHAR <unknown>
ENCODING 66
SWIDTH 42 0
DWIDTH 12 0
BBX 11 14 0 0
BITMAP
ff00
6080
60c0
60c0
60c0
6180
7f80
60c0
6060
6060
6060
6060
60c0
ff80
ENDCHAR
STARTCHAR <unknown>
ENCODING 67
SWIDTH 42 0
DWIDTH 12 0
BBX 10 14 1 0
BITMAP
1f80
20c0
4040
4000
c000
c000
c000
c000
c000
c000
4000
6040
3080
1f00
ENDCHAR
STARTCHAR <unknown>
ENCODING 68
SWIDTH 42 0
DWIDTH 12 0
BBX 11 14 0 0
BITMAP
ff00
61c0
60c0
6060
6060
6060
6060
6060
6060
6060
6060
6040
6180
fe00
ENDCHAR
STARTCHAR <unknown>
ENCODING 69
SWIDTH 42 0
DWIDTH 12 0
BBX 10 14 1 0
BITMAP
ff80
6080
6080
6000
6000
6100
7f00
6100
6000
6000
6000
6040
6040
ffc0
ENDCHAR
STARTCHAR <unknown>
ENCODING 70
SWIDTH 42 0
DWIDTH 12 0
BBX 9 14 1 0
BITMAP
ff80
6080
6080
6000
6000
6100
7f00
6100
6000
6000
6000
6000
6000
f000
ENDCHAR
STARTCHAR <unknown>
ENCODING 71
SWIDTH 42 0
DWIDTH 12 0
BBX 11 14 1 0
BITMAP
1f80
20c0
4040
4000
c000
c000
c000
c000
c3e0
c0c0
40c0
60c0
30c0
1f00
ENDCHAR
STARTCHAR <unknown>
ENCODING 72
SWIDTH 42 0
DWIDTH 12 0
BBX 12 14 0 0
BITMAP
f0f0
6060
6060
6060
6060
6060
7fe0
6060
6060
6060
6060
6060
6060
f0f0
ENDCHAR
STARTCHAR <unknown>
ENCODING 73
SWIDTH 42 0
DWIDTH 12 0
BBX 6 14 3 0
BITMAP
fc
30
30
30
30
30
30
30
30
30
30
30
30
fc
ENDCHAR
STARTCHAR <unknown>
ENCODING 74
SWIDTH 42 0
DWIDTH 12 0
BBX 7 19 2 -5
BITMAP
7e
18
18
18
18
18
18
18
18
18
18
18
18
18
18
18
10
e0
c0
ENDCHAR
STARTCHAR <unknown>
ENCODING 75
SWIDTH 42 0
DWIDTH 12 0
BBX 12 14 0 0
BITMAP
f0e0
6180
6300
6600
6c00
7800
7800
7c00
6e00
6700
6380
61c0
60e0
f070
ENDCHAR
STARTCHAR <unknown>
ENCODING 76
SWIDTH 42 0
DWIDTH 12 0
BBX 10 14 1 0
BITMAP
f000
6000
6000
6000
6000
6000
6000
6000
6000
6000
6000
6040
6040
ffc0
ENDCHAR
STARTCHAR <unknown>
ENCODING 77
SWIDTH 42 0
DWIDTH 12 0
BBX 12 14 0 0
BITMAP
e070
60e0
70e0
70e0
70e0
5960
5960
5960
4d60
4e60
4e60
4460
4460
e4f0
ENDCHAR
STARTCHAR <unknown>
ENCODING 78
SWIDTH 42 0
DWIDTH 12 0
BBX 12 14 0 0
BITMAP
c070
6020
7020
7820
5820
4c20
4620
4720
4320
41a0
40e0
40e0
4060
e030
ENDCHAR
STARTCHAR <unknown>
ENCODING 79
SWIDTH 42 0
DWIDTH 12 0
BBX 10 14 1 0
BITMAP
1e00
2380
4180
40c0
c0c0
c0c0
c0c0
c0c0
c0c0
c0c0
4080
6080
3100
1e00
ENDCHAR
STARTCHAR <unknown>
ENCODING 80
SWIDTH 42 0
DWIDTH 12 0
BBX 10 14 1 0
BITMAP
ff00
6180
60c0
60c0
60c0
6180
6f00
6000
6000
6000
6000
6000
6000
f000
ENDCHAR
STARTCHAR <unknown>
ENCODING 81
SWIDTH 42 0
DWIDTH 12 0
BBX 11 17 1 -3
BITMAP
1e00
2380
4180
40c0
c0c0
c0c0
c0c0
c0c0
c0c0
c0c0
6080
7080
3f00
1c00
3e00
4720
03c0
ENDCHAR
STARTCHAR <unknown>
ENCODING 82
SWIDTH 42 0
DWIDTH 12 0
BBX 12 14 0 0
BITMAP
ff00
6180
60c0
60c0
60c0
6080
7f00
7c00
6e00
6700
6380
61c0
60e0
f070
ENDCHAR
STARTCHAR <unknown>
ENCODING 83
SWIDTH 42 0
DWIDTH 12 0
BBX 10 14 1 0
BITMAP
3fc0
60c0
c040
c040
e000
7800
3c00
0f00
0380
01c0
80c0
80c0
c180
ff00
ENDCHAR
STARTCHAR <unknown>
ENCODING 84
SWIDTH 42 0
DWIDTH 12 0
BBX 10 14 1 0
BITMAP
ffc0
8c40
0c00
0c00
0c00
0c00
0c00
0c00
0c00
0c00
0c00
0c00
0c00
3f00
ENDCHAR
STARTCHAR <unknown>
ENCODING 85
SWIDTH 42 0
DWIDTH 12 0
BBX 12 14 0 0
BITMAP
f070
6020
6020
6020
6020
6020
6020
6020
6020
6020
6020
7040
3fc0
1f80
ENDCHAR
STARTCHAR <unknown>
ENCODING 86
SWIDTH 42 0
DWIDTH 12 0
BBX 11 14 0 0
BITMAP
e0e0
6040
3080
3080
3080
1900
1900
1900
0c00
0e00
0e00
0400
0400
0400
ENDCHAR
STARTCHAR <unknown>
ENCODING 87
SWIDTH 42 0
DWIDTH 12 0
BBX 12 14 0 0
BITMAP
fef0
6620
6620
6620
7620
7740
3340
3740
3bc0
3b80
1980
1980
1980
1980
ENDCHAR
STARTCHAR <unknown>
ENCODING 88
SWIDTH 42 0
DWIDTH 12 0
BBX 12 14 0 0
BITMAP
f070
6020
3040
3880
1880
0d00
0600
0600
0b00
1180
11c0
20c0
4060
e0f0
ENDCHAR
STARTCHAR <unknown>
ENCODING 89
SWIDTH 42 0
DWIDTH 12 0
BBX 12 14 0 0
BITMAP
f070
6020
3040
1880
1880
0d00
0600
0600
0600
0600
0600
0600
0600
0f00
ENDCHAR
STARTCHAR <unknown>
ENCODING 90
SWIDTH 42 0
DWIDTH 12 0
BBX 9 14 2 0
BITMAP
ff80
8300
0300
0600
0600
0c00
0c00
1800
1800
3000
3000
6000
6080
ff80
ENDCHAR
STARTCHAR <unknown>
ENCODING 91
SWIDTH 42 0
DWIDTH 12 0
BBX 5 15 5 0
BITMAP
f8
c0
c0
c0
c0
c0
c0
c0
c0
c0
c0
c0
c0
c0
f8
ENDCHAR
STARTCHAR <unknown>
ENCODING 92
SWIDTH 42 0
DWIDTH 12 0
BBX 9 15 1 0
BITMAP
c000
c000
6000
6000
3000
3000
1800
1800
0c00
0600
0600
0300
0300
0180
0180
ENDCHAR
STARTCHAR <unknown>
ENCODING 93
SWIDTH 42 0
DWIDTH 12 0
BBX 5 15 1 0
BITMAP
f8
18
18
18
18
18
18
18
18
18
18
18
18
18
f8
ENDCHAR
STARTCHAR <unknown>
ENCODING 94
SWIDTH 42 0
DWIDTH 12 0
BBX 11 6 0 4
BITMAP
0400
0e00
1b00
3180
60c0
c060
ENDCHAR
STARTCHAR <unknown>
ENCODING 95
SWIDTH 42 0
DWIDTH 12 0
BBX 12 2 0 -3
BITMAP
fff0
fff0
ENDCHAR
STARTCHAR <unknown>
ENCODING 96
SWIDTH 42 0
DWIDTH 12 0
BBX 5 6 3 8
BITMAP
e0
e0
f0
70
38
08
ENDCHAR
STARTCHAR <unknown>
ENCODING 97
SWIDTH 42 0
DWIDTH 12 0
BBX 9 10 2 0
BITMAP
3e00
6300
4300
0f00
7300
c300
c300
c300
e700
7b80
ENDCHAR
STARTCHAR <unknown>
ENCODING 98
SWIDTH 42 0
DWIDTH 12 0
BBX 11 15 0 0
BITMAP
2000
6000
e000
6000
6000
6780
6fc0
70e0
6060
6060
6060
6060
7060
78c0
4f80
ENDCHAR
STARTCHAR <unknown>
ENCODING 99
SWIDTH 42 0
DWIDTH 12 0
BBX 9 10 1 0
BITMAP
3f00
6380
4180
c000
c000
c000
c000
e080
6180
3f00
ENDCHAR
STARTCHAR <unknown>
ENCODING 100
SWIDTH 42 0
DWIDTH 12 0
BBX 11 15 1 0
BITMAP
00c0
01c0
00c0
00c0
00c0
1ec0
63c0
41c0
c0c0
c0c0
c0c0
c0c0
e1c0
72c0
3ce0
ENDCHAR
STARTCHAR <unknown>
ENCODING 101
SWIDTH 42 0
DWIDTH 12 0
BBX 10 10 1 0
BITMAP
1e00
6180
c0c0
c0c0
ffc0
c000
c000
6000
30c0
1f00
ENDCHAR
STARTCHAR <unknown>
ENCODING 102
SWIDTH 42 0
DWIDTH 12 0
BBX 7 15 3 0
BITMAP
1c
26
26
60
60
60
60
fc
60
60
60
60
60
60
f0
ENDCHAR
STARTCHAR <unknown>
ENCODING 103
SWIDTH 42 0
DWIDTH 12 0
BBX 10 15 1 -5
BITMAP
3e40
63c0
c180
c180
c180
6300
7e00
c000
ff80
7fc0
40c0
8040
8040
ff80
7f00
ENDCHAR
STARTCHAR <unknown>
ENCODING 104
SWIDTH 42 0
DWIDTH 12 0
BBX 10 15 1 0
BITMAP
2000
6000
e000
6000
6000
6f00
7380
6180
6180
6180
6180
6180
6180
6180
f3c0
ENDCHAR
STARTCHAR <unknown>
ENCODING 105
SWIDTH 42 0
DWIDTH 12 0
BBX 6 14 3 0
BITMAP
30
30
00
00
f0
30
30
30
30
30
30
30
30
fc
ENDCHAR
STARTCHAR <unknown>
ENCODING 106
SWIDTH 42 0
DWIDTH 12 0
BBX 8 19 2 -5
BITMAP
03
03
00
00
0f
03
03
03
03
03
03
03
03
03
83
c3
e2
7c
38
ENDCHAR
STARTCHAR <unknown>
ENCODING 107
SWIDTH 42 0
DWIDTH 12 0
BBX 11 15 0 0
BITMAP
6000
e000
6000
6000
6000
61c0
6300
6600
7c00
7800
7c00
6e00
6700
6380
f1e0
ENDCHAR
STARTCHAR <unknown>
ENCODING 108
SWIDTH 42 0
DWIDTH 12 0
BBX 6 15 3 0
BITMAP
f0
30
30
30
30
30
30
30
30
30
30
30
30
30
fc
ENDCHAR
STARTCHAR <unknown>
ENCODING 109
SWIDTH 42 0
DWIDTH 12 0
BBX 12 10 0 0
BITMAP
ddc0
6ee0
6660
6660
6660
6660
6660
6660
6660
ef70
ENDCHAR
STARTCHAR <unknown>
ENCODING 110
SWIDTH 42 0
DWIDTH 12 0
BBX 10 10 1 0
BITMAP
4f00
f380
6180
6180
6180
6180
6180
6180
6180
f3c0
ENDCHAR
STARTCHAR <unknown>
ENCODING 111
SWIDTH 42 0
DWIDTH 12 0
BBX 10 10 1 0
BITMAP
1f00
2380
41c0
c0c0
c0c0
c0c0
c0c0
e080
7100
3e00
ENDCHAR
STARTCHAR <unknown>
ENCODING 112
SWIDTH 42 0
DWIDTH 12 0
BBX 11 15 0 -5
BITMAP
ef80
71c0
60e0
6060
6060
6060
6060
6040
7080
7f00
6000
6000
6000
6000
f000
ENDCHAR
STARTCHAR <unknown>
ENCODING 113
SWIDTH 42 0
DWIDTH 12 0
BBX 11 15 1 -5
BITMAP
1e40
23c0
41c0
c0c0
c0c0
c0c0
c0c0
e0c0
71c0
3fc0
00c0
00c0
00c0
00c0
01e0
ENDCHAR
STARTCHAR <unknown>
ENCODING 114
SWIDTH 42 0
DWIDTH 12 0
BBX 9 10 1 0
BITMAP
e700
6980
7180
6000
6000
6000
6000
6000
6000
f000
ENDCHAR
STARTCHAR <unknown>
ENCODING 115
SWIDTH 42 0
DWIDTH 12 0
BBX 8 10 2 0
BITMAP
7f
c3
c1
e0
78
1e
07
83
c3
fe
ENDCHAR
STARTCHAR <unknown>
ENCODING 116
SWIDTH 42 0
DWIDTH 12 0
BBX 10 13 1 0
BITMAP
0800
0800
1800
ff80
1800
1800
1800
1800
1800
1800
1840
1c80
0f00
ENDCHAR
STARTCHAR <unknown>
ENCODING 117
SWIDTH 42 0
DWIDTH 12 0
BBX 10 10 1 0
BITMAP
f3c0
6180
6180
6180
6180
6180
6180
6180
7380
3cc0
ENDCHAR
STARTCHAR <unknown>
ENCODING 118
SWIDTH 42 0
DWIDTH 12 0
BBX 12 10 0 0
BITMAP
f070
6020
3040
3040
1880
1880
0d00
0d00
0600
0600
ENDCHAR
STARTCHAR <unknown>
ENCODING 119
SWIDTH 42 0
DWIDTH 12 0
BBX 12 10 0 0
BITMAP
ff70
6620
6620
6620
3740
3b40
3b40
1980
1980
1980
ENDCHAR
STARTCHAR <unknown>
ENCODING 120
SWIDTH 42 0
DWIDTH 12 0
BBX 12 10 0 0
BITMAP
f8f0
7040
3880
1d00
0e00
0700
0b80
11c0
20e0
f1f0
ENDCHAR
STARTCHAR <unknown>
ENCODING 121
SWIDTH 42 0
DWIDTH 12 0
BBX 12 15 0 -5
BITMAP
f0f0
6020
3040
3040
1880
1880
0d00
0d00
0600
0600
0400
0c00
0800
7800
7000
ENDCHAR
STARTCHAR <unknown>
ENCODING 122
SWIDTH 42 0
DWIDTH 12 0
BBX 10 10 1 0
BITMAP
ffc0
c1c0
8380
0700
0e00
1c00
3800
7040
e0c0
ffc0
ENDCHAR
STARTCHAR <unknown>
ENCODING 123
SWIDTH 42 0
DWIDTH 12 0
BBX 5 15 5 0
BITMAP
38
60
60
30
30
30
60
e0
60
30
30
30
60
60
38
ENDCHAR
STARTCHAR <unknown>
ENCODING 124
SWIDTH 42 0
DWIDTH 12 0
BBX 2 14 5 0
BITMAP
c0
c0
c0
c0
c0
c0
c0
c0
c0
c0
c0
c0
c0
c0
ENDCHAR
STARTCHAR <unknown>
ENCODING 125
SWIDTH 42 0
DWIDTH 12 0
BBX 5 15 2 0
BITMAP
e0
30
30
60
60
60
30
38
30
60
60
60
30
30
e0
ENDCHAR
STARTCHAR <unknown>
ENCODING 126
SWIDTH 42 0
DWIDTH 12 0
BBX 10 5 1 3
BITMAP
3840
7cc0
6d80
cf80
8700
ENDCHAR
STARTCHAR <unknown>
ENCODING 127
SWIDTH 42 0
DWIDTH 0 0
BBX 0 0 0 0
BITMAP
ENDCHAR
STARTCHAR <unknown>
ENCODING 128
SWIDTH 42 0
DWIDTH 0 0
BBX 0 0 0 0
BITMAP
ENDCHAR
STARTCHAR <unknown>
ENCODING 129
SWIDTH 42 0
DWIDTH 0 0
BBX 0 0 0 0
BITMAP
ENDCHAR
STARTCHAR <unknown>
ENCODING 130
SWIDTH 42 0
DWIDTH 0 0
BBX 0 0 0 0
BITMAP
ENDCHAR
STARTCHAR <unknown>
ENCODING 131
SWIDTH 42 0
DWIDTH 0 0
BBX 0 0 0 0
BITMAP
ENDCHAR
STARTCHAR <unknown>
ENCODING 132
SWIDTH 42 0
DWIDTH 0 0
BBX 0 0 0 0
BITMAP
ENDCHAR
STARTCHAR <unknown>
ENCODING 133
SWIDTH 42 0
DWIDTH 0 0
BBX 0 0 0 0
BITMAP
ENDCHAR
STARTCHAR <unknown>
ENCODING 134
SWIDTH 42 0
DWIDTH 0 0
BBX 0 0 0 0
BITMAP
ENDCHAR
STARTCHAR <unknown>
ENCODING 135
SWIDTH 42 0
DWIDTH 0 0
BBX 0 0 0 0
BITMAP
ENDCHAR
STARTCHAR <unknown>
ENCODING 136
SWIDTH 42 0
DWIDTH 0 0
BBX 0 0 0 0
BITMAP
ENDCHAR
STARTCHAR <unknown>
ENCODING 137
SWIDTH 42 0
DWIDTH 0 0
BBX 0 0 0 0
BITMAP
ENDCHAR
STARTCHAR <unknown>
ENCODING 138
SWIDTH 42 0
DWIDTH 0 0
BBX 0 0 0 0
BITMAP
ENDCHAR
STARTCHAR <unknown>
ENCODING 139
SWIDTH 42 0
DWIDTH 0 0
BBX 0 0 0 0
BITMAP
ENDCHAR
STARTCHAR <unknown>
ENCODING 140
SWIDTH 42 0
DWIDTH 0 0
BBX 0 0 0 0
BITMAP
ENDCHAR
STARTCHAR <unknown>
ENCODING 141
SWIDTH 42 0
DWIDTH 0 0
BBX 0 0 0 0
BITMAP
ENDCHAR
STARTCHAR <unknown>
ENCODING 142
SWIDTH 42 0
DWIDTH 0 0
BBX 0 0 0 0
BITMAP
ENDCHAR
STARTCHAR <unknown>
ENCODING 143
SWIDTH 42 0
DWIDTH 0 0
BBX 0 0 0 0
BITMAP
ENDCHAR
STARTCHAR <unknown>
ENCODING 144
SWIDTH 42 0
DWIDTH 0 0
BBX 0 0 0 0
BITMAP
ENDCHAR
STARTCHAR <unknown>
ENCODING 145
SWIDTH 42 0
DWIDTH 0 0
BBX 0 0 0 0
BITMAP
ENDCHAR
STARTCHAR <unknown>
ENCODING 146
SWIDTH 42 0
DWIDTH 0 0
BBX 0 0 0 0
BITMAP
ENDCHAR
STARTCHAR <unknown>
ENCODING 147
SWIDTH 42 0
DWIDTH 0 0
BBX 0 0 0 0
BITMAP
ENDCHAR
STARTCHAR <unknown>
ENCODING 148
SWIDTH 42 0
DWIDTH 0 0
BBX 0 0 0 0
BITMAP
ENDCHAR
STARTCHAR <unknown>
ENCODING 149
SWIDTH 42 0
DWIDTH 0 0
BBX 0 0 0 0
BITMAP
ENDCHAR
STARTCHAR <unknown>
ENCODING 150
SWIDTH 42 0
DWIDTH 0 0
BBX 0 0 0 0
BITMAP
ENDCHAR
STARTCHAR <unknown>
ENCODING 151
SWIDTH 42 0
DWIDTH 0 0
BBX 0 0 0 0
BITMAP
ENDCHAR
STARTCHAR <unknown>
ENCODING 152
SWIDTH 42 0
DWIDTH 0 0
BBX 0 0 0 0
BITMAP
ENDCHAR
STARTCHAR <unknown>
ENCODING 153
SWIDTH 42 0
DWIDTH 0 0
BBX 0 0 0 0
BITMAP
ENDCHAR
STARTCHAR <unknown>
ENCODING 154
SWIDTH 42 0
DWIDTH 0 0
BBX 0 0 0 0
BITMAP
ENDCHAR
STARTCHAR <unknown>
ENCODING 155
SWIDTH 42 0
DWIDTH 0 0
BBX 0 0 0 0
BITMAP
ENDCHAR
STARTCHAR <unknown>
ENCODING 156
SWIDTH 42 0
DWIDTH 0 0
BBX 0 0 0 0
BITMAP
ENDCHAR
STARTCHAR <unknown>
ENCODING 157
SWIDTH 42 0
DWIDTH 0 0
BBX 0 0 0 0
BITMAP
ENDCHAR
STARTCHAR <unknown>
ENCODING 158
SWIDTH 42 0
DWIDTH 0 0
BBX 0 0 0 0
BITMAP
ENDCHAR
STARTCHAR <unknown>
ENCODING 159
SWIDTH 42 0
DWIDTH 0 0
BBX 0 0 0 0
BITMAP
ENDCHAR
STARTCHAR <unknown>
ENCODING 160
SWIDTH 42 0
DWIDTH 12 0
BBX 12 15 0 0
BITMAP
0700
0f80
1180
10c0
30c0
30d0
7cd0
f6f0
b6e0
b3c0
30c0
3080
1880
1f00
0e00
ENDCHAR
STARTCHAR <unknown>
ENCODING 161
SWIDTH 42 0
DWIDTH 12 0
BBX 9 3 2 11
BITMAP
e380
e380
e380
ENDCHAR
STARTCHAR <unknown>
ENCODING 162
SWIDTH 42 0
DWIDTH 12 0
BBX 8 2 2 12
BITMAP
ff
ff
ENDCHAR
STARTCHAR <unknown>
ENCODING 163
SWIDTH 42 0
DWIDTH 0 0
BBX 0 0 0 0
BITMAP
ENDCHAR
STARTCHAR <unknown>
ENCODING 164
SWIDTH 42 0
DWIDTH 12 0
BBX 10 13 1 0
BITMAP
00c0
0380
0e00
3c00
f000
f000
3c00
0e00
0380
00c0
0000
ffc0
ffc0
ENDCHAR
STARTCHAR <unknown>
ENCODING 165
SWIDTH 42 0
DWIDTH 0 0
BBX 0 0 0 0
BITMAP
ENDCHAR
STARTCHAR <unknown>
ENCODING 166
SWIDTH 42 0
DWIDTH 12 0
BBX 10 13 1 0
BITMAP
c000
7000
3c00
0f00
03c0
03c0
0f00
3c00
7000
c000
0000
ffc0
ffc0
ENDCHAR
STARTCHAR <unknown>
ENCODING 167
SWIDTH 42 0
DWIDTH 0 0
BBX 0 0 0 0
BITMAP
ENDCHAR
STARTCHAR <unknown>
ENCODING 168
SWIDTH 42 0
DWIDTH 12 0
BBX 10 14 1 0
BITMAP
00c0
00c0
0180
0180
ffc0
ffc0
0c00
0c00
ffc0
ffc0
6000
6000
c000
c000
ENDCHAR
STARTCHAR <unknown>
ENCODING 169
SWIDTH 42 0
DWIDTH 12 0
BBX 11 6 0 4
BITMAP
c060
60c0
3180
1b00
0e00
0400
ENDCHAR
STARTCHAR <unknown>
ENCODING 170
SWIDTH 42 0
DWIDTH 0 0
BBX 0 0 0 0
BITMAP
ENDCHAR
STARTCHAR <unknown>
ENCODING 171
SWIDTH 42 0
DWIDTH 12 0
BBX 10 9 1 3
BITMAP
c0c0
6180
3300
1e00
0c00
1e00
3300
6180
c0c0
ENDCHAR
STARTCHAR <unknown>
ENCODING 172
SWIDTH 42 0
DWIDTH 12 0
BBX 8 13 1 -5
BITMAP
ff
ff
00
00
00
18
3c
3c
0c
0c
18
30
20
ENDCHAR
STARTCHAR <unknown>
ENCODING 173
SWIDTH 42 0
DWIDTH 12 0
BBX 10 14 1 0
BITMAP
ffc0
c0c0
ccc0
ccc0
ccc0
c0c0
ffc0
ffc0
c0c0
ccc0
ccc0
ccc0
c0c0
ffc0
ENDCHAR
STARTCHAR <unknown>
ENCODING 174
SWIDTH 42 0
DWIDTH 12 0
BBX 9 11 2 3
BITMAP
e380
e380
e380
0000
0000
0000
0000
0000
1c00
1c00
1c00
ENDCHAR
STARTCHAR <unknown>
ENCODING 175
SWIDTH 42 0
DWIDTH 12 0
BBX 10 15 1 0
BITMAP
00c0
0180
0180
0300
0300
0600
0600
ff80
ff80
1800
3000
3000
6000
6000
c000
ENDCHAR
STARTCHAR <unknown>
ENCODING 176
SWIDTH 42 0
DWIDTH 12 0
BBX 11 11 0 4
BITMAP
3820
7c60
c7e0
8380
0000
0400
0e00
1b00
3180
60c0
c060
ENDCHAR
STARTCHAR <unknown>
ENCODING 177
SWIDTH 42 0
DWIDTH 12 0
BBX 2 15 5 -1
BITMAP
c0
c0
00
00
c0
c0
c0
c0
c0
c0
c0
c0
c0
c0
c0
ENDCHAR
STARTCHAR <unknown>
ENCODING 178
SWIDTH 42 0
DWIDTH 0 0
BBX 0 0 0 0
BITMAP
ENDCHAR
STARTCHAR <unknown>
ENCODING 179
SWIDTH 42 0
DWIDTH 12 0
BBX 10 14 0 0
BITMAP
0f00
1980
1800
1800
1800
1800
3e00
3e00
1800
1800
1800
30c0
61c0
ff80
ENDCHAR
STARTCHAR <unknown>
ENCODING 180
SWIDTH 42 0
DWIDTH 12 0
BBX 12 14 0 0
BITMAP
f070
6020
3040
1880
1880
0d00
0600
7fe0
0600
7fe0
0600
0600
0600
0f00
ENDCHAR
STARTCHAR <unknown>
ENCODING 181
SWIDTH 42 0
DWIDTH 0 0
BBX 0 0 0 0
BITMAP
ENDCHAR
STARTCHAR <unknown>
ENCODING 182
SWIDTH 42 0
DWIDTH 12 0
BBX 10 5 1 4
BITMAP
ffc0
ffc0
c000
c000
c000
ENDCHAR
STARTCHAR <unknown>
ENCODING 183
SWIDTH 42 0
DWIDTH 0 0
BBX 0 0 0 0
BITMAP
ENDCHAR
STARTCHAR <unknown>
ENCODING 184
SWIDTH 42 0
DWIDTH 0 0
BBX 0 0 0 0
BITMAP
ENDCHAR
STARTCHAR <unknown>
ENCODING 185
SWIDTH 42 0
DWIDTH 12 0
BBX 11 11 0 4
BITMAP
3820
7c60
c7e0
8380
0000
c060
60c0
3180
1b00
0e00
0400
ENDCHAR
STARTCHAR <unknown>
ENCODING 186
SWIDTH 42 0
DWIDTH 0 0
BBX 0 0 0 0
BITMAP
ENDCHAR
STARTCHAR <unknown>
ENCODING 187
SWIDTH 42 0
DWIDTH 12 0
BBX 10 14 1 0
BITMAP
ffc0
c0c0
c0c0
c0c0
ccc0
d2c0
f3c0
f3c0
d2c0
ccc0
c0c0
c0c0
c0c0
ffc0
ENDCHAR
STARTCHAR <unknown>
ENCODING 188
SWIDTH 42 0
DWIDTH 12 0
BBX 10 14 1 0
BITMAP
ffc0
c0c0
c0c0
e0c0
d0c0
d0c0
c8c0
c4c0
c2c0
c2c0
c1c0
c0c0
c0c0
ffc0
ENDCHAR
STARTCHAR <unknown>
ENCODING 189
SWIDTH 42 0
DWIDTH 12 0
BBX 10 10 1 3
BITMAP
ffc0
ffc0
0000
0000
ffc0
ffc0
0000
0000
ffc0
ffc0
ENDCHAR
STARTCHAR <unknown>
ENCODING 190
SWIDTH 42 0
DWIDTH 12 0
BBX 6 14 3 0
BITMAP
fc
cc
cc
cc
cc
cc
cc
cc
cc
cc
cc
cc
cc
fc
ENDCHAR
STARTCHAR <unknown>
ENCODING 191
SWIDTH 42 0
DWIDTH 12 0
BBX 9 15 1 -1
BITMAP
0c00
0c00
0000
0c00
0c00
0c00
1c00
7000
e000
c000
c000
e180
e180
7700
1e00
ENDCHAR
STARTCHAR <unknown>
ENCODING 192
SWIDTH 42 0
DWIDTH 0 0
BBX 0 0 0 0
BITMAP
ENDCHAR
STARTCHAR <unknown>
ENCODING 193
SWIDTH 42 0
DWIDTH 12 0
BBX 10 9 1 0
BITMAP
3e40
6380
c300
c300
c300
c300
c300
e780
7dc0
ENDCHAR
STARTCHAR <unknown>
ENCODING 194
SWIDTH 42 0
DWIDTH 12 0
BBX 9 10 1 0
BITMAP
0800
0800
0800
0800
0800
0800
0800
0800
ff80
ff80
ENDCHAR
STARTCHAR <unknown>
ENCODING 195
SWIDTH 42 0
DWIDTH 12 0
BBX 8 10 2 2
BITMAP
3c
66
c3
c3
c3
c3
c3
c3
c3
c3
ENDCHAR
STARTCHAR <unknown>
ENCODING 196
SWIDTH 42 0
DWIDTH 12 0
BBX 5 15 4 0
BITMAP
c0
c0
c0
c0
c0
c0
c0
c0
c0
c0
c0
c0
c0
f8
f8
ENDCHAR
STARTCHAR <unknown>
ENCODING 197
SWIDTH 42 0
DWIDTH 12 0
BBX 8 9 2 3
BITMAP
1f
60
40
c0
fc
c0
c0
40
3e
ENDCHAR
STARTCHAR <unknown>
ENCODING 198
SWIDTH 42 0
DWIDTH 0 0
BBX 0 0 0 0
BITMAP
ENDCHAR
STARTCHAR <unknown>
ENCODING 199
SWIDTH 42 0
DWIDTH 12 0
BBX 10 11 1 0
BITMAP
ffc0
c040
c040
6080
6080
3100
3100
1a00
1a00
0c00
0c00
ENDCHAR
STARTCHAR <unknown>
ENCODING 200
SWIDTH 42 0
DWIDTH 12 0
BBX 10 11 1 0
BITMAP
0c00
0c00
1a00
1a00
3100
3100
6080
6080
c040
c040
ffc0
ENDCHAR
STARTCHAR <unknown>
ENCODING 201
SWIDTH 42 0
DWIDTH 12 0
BBX 6 9 4 2
BITMAP
e0
60
60
60
60
60
60
64
38
ENDCHAR
STARTCHAR <unknown>
ENCODING 202
SWIDTH 42 0
DWIDTH 12 0
BBX 6 5 3 3
BITMAP
78
cc
cc
cc
78
ENDCHAR
STARTCHAR <unknown>
ENCODING 203
SWIDTH 42 0
DWIDTH 0 0
BBX 0 0 0 0
BITMAP
ENDCHAR
STARTCHAR <unknown>
ENCODING 204
SWIDTH 42 0
DWIDTH 12 0
BBX 10 14 1 0
BITMAP
ffc0
c0c0
c0c0
c0c0
c0c0
c0c0
c0c0
c0c0
c0c0
c0c0
c0c0
c0c0
c0c0
ffc0
ENDCHAR
STARTCHAR <unknown>
ENCODING 205
SWIDTH 42 0
DWIDTH 12 0
BBX 2 14 5 0
BITMAP
c0
c0
c0
c0
c0
c0
c0
c0
c0
c0
c0
c0
c0
c0
ENDCHAR
STARTCHAR <unknown>
ENCODING 206
SWIDTH 42 0
DWIDTH 12 0
BBX 9 10 1 0
BITMAP
ff80
ff80
0800
0800
0800
0800
0800
0800
0800
0800
ENDCHAR
STARTCHAR <unknown>
ENCODING 207
SWIDTH 42 0
DWIDTH 12 0
BBX 9 9 1 1
BITMAP
3e00
6300
c180
c180
c180
c180
c180
6300
3e00
ENDCHAR
STARTCHAR <unknown>
ENCODING 208
SWIDTH 42 0
DWIDTH 0 0
BBX 0 0 0 0
BITMAP
ENDCHAR
STARTCHAR <unknown>
ENCODING 209
SWIDTH 42 0
DWIDTH 0 0
BBX 0 0 0 0
BITMAP
ENDCHAR
STARTCHAR <unknown>
ENCODING 210
SWIDTH 42 0
DWIDTH 12 0
BBX 10 14 1 -4
BITMAP
1f00
2380
41c0
c0c0
c0c0
c0c0
c0c0
e080
f100
fe00
c000
c000
c000
c000
ENDCHAR
STARTCHAR <unknown>
ENCODING 211
SWIDTH 42 0
DWIDTH 12 0
BBX 5 15 4 0
BITMAP
f8
f8
c0
c0
c0
c0
c0
c0
c0
c0
c0
c0
c0
c0
c0
ENDCHAR
STARTCHAR <unknown>
ENCODING 212
SWIDTH 42 0
DWIDTH 0 0
BBX 0 0 0 0
BITMAP
ENDCHAR
STARTCHAR <unknown>
ENCODING 213
SWIDTH 42 0
DWIDTH 12 0
BBX 8 15 1 -1
BITMAP
18
18
18
18
18
18
18
18
18
18
18
99
5a
3c
18
ENDCHAR
STARTCHAR <unknown>
ENCODING 214
SWIDTH 42 0
DWIDTH 12 0
BBX 8 10 2 2
BITMAP
c3
c3
c3
c3
c3
c3
c3
c3
66
3c
ENDCHAR
STARTCHAR <unknown>
ENCODING 215
SWIDTH 42 0
DWIDTH 12 0
BBX 10 9 1 0
BITMAP
2080
60c0
60c0
c0c0
c4c0
ccc0
ccc0
7f80
3300
ENDCHAR
STARTCHAR <unknown>
ENCODING 216
SWIDTH 42 0
DWIDTH 12 0
BBX 10 9 1 4
BITMAP
ff00
ff80
0180
00c0
00c0
00c0
0180
ff80
ff00
ENDCHAR
STARTCHAR <unknown>
ENCODING 217
SWIDTH 42 0
DWIDTH 12 0
BBX 8 15 1 0
BITMAP
18
3c
5a
99
18
18
18
18
18
18
18
18
18
18
18
ENDCHAR
STARTCHAR <unknown>
ENCODING 218
SWIDTH 42 0
DWIDTH 12 0
BBX 10 9 1 4
BITMAP
3fc0
7fc0
6000
c000
c000
c000
6000
7fc0
3fc0
ENDCHAR
STARTCHAR <unknown>
ENCODING 219
SWIDTH 42 0
DWIDTH 12 0
BBX 10 10 1 3
BITMAP
c000
c000
c000
c000
ffc0
ffc0
c000
c000
c000
c000
ENDCHAR
STARTCHAR <unknown>
ENCODING 220
SWIDTH 42 0
DWIDTH 12 0
BBX 10 15 1 0
BITMAP
c000
c000
6000
6000
3000
3000
1800
ffc0
ffc0
0600
0600
0300
0300
0180
0180
ENDCHAR
STARTCHAR <unknown>
ENCODING 221
SWIDTH 42 0
DWIDTH 12 0
BBX 10 11 1 3
BITMAP
00c0
00c0
00c0
00c0
00c0
ffc0
ffc0
00c0
00c0
00c0
00c0
ENDCHAR
STARTCHAR <unknown>
ENCODING 222
SWIDTH 42 0
DWIDTH 0 0
BBX 0 0 0 0
BITMAP
ENDCHAR
STARTCHAR <unknown>
ENCODING 223
SWIDTH 42 0
DWIDTH 12 0
BBX 10 10 1 3
BITMAP
0c00
0c00
0000
0000
ffc0
ffc0
0000
0000
0c00
0c00
ENDCHAR
STARTCHAR <unknown>
ENCODING 224
SWIDTH 42 0
DWIDTH 12 0
BBX 8 11 2 0
BITMAP
ff
ff
18
18
18
18
18
18
18
ff
ff
ENDCHAR
STARTCHAR <unknown>
ENCODING 225
SWIDTH 42 0
DWIDTH 12 0
BBX 9 10 1 1
BITMAP
3e00
6300
c180
8080
ff80
ff80
8080
c180
6300
3e00
ENDCHAR
STARTCHAR <unknown>
ENCODING 226
SWIDTH 42 0
DWIDTH 12 0
BBX 9 11 1 0
BITMAP
0800
0800
3e00
6b00
6b00
6b00
6b00
3e00
0800
ff80
ff80
ENDCHAR
STARTCHAR <unknown>
ENCODING 227
SWIDTH 42 0
DWIDTH 12 0
BBX 8 10 2 0
BITMAP
3c
66
c3
c3
e7
ff
c3
c3
c3
c3
ENDCHAR
STARTCHAR <unknown>
ENCODING 228
SWIDTH 42 0
DWIDTH 0 0
BBX 0 0 0 0
BITMAP
ENDCHAR
STARTCHAR <unknown>
ENCODING 229
SWIDTH 42 0
DWIDTH 12 0
BBX 9 12 2 0
BITMAP
1f00
6000
4000
c000
fc00
c000
c000
4000
3e00
0000
ff80
ff80
ENDCHAR
STARTCHAR <unknown>
ENCODING 230
SWIDTH 42 0
DWIDTH 12 0
BBX 10 15 1 0
BITMAP
3840
6ec0
c780
0000
ffc0
c040
c040
6080
6080
3100
3100
1a00
1a00
0c00
0c00
ENDCHAR
STARTCHAR <unknown>
ENCODING 231
SWIDTH 42 0
DWIDTH 12 0
BBX 10 15 1 0
BITMAP
0400
0400
0400
ffc0
c440
c440
6480
6480
3500
3500
1e00
1e00
0c00
0c00
0c00
ENDCHAR
STARTCHAR <unknown>
ENCODING 232
SWIDTH 42 0
DWIDTH 12 0
BBX 10 16 1 -1
BITMAP
0c00
0c00
0c00
0c00
1e00
1600
3500
3500
6480
6480
c440
c440
ffc0
0400
0400
0400
ENDCHAR
STARTCHAR <unknown>
ENCODING 233
SWIDTH 42 0
DWIDTH 12 0
BBX 10 12 2 -1
BITMAP
3800
1800
1800
1800
1800
1800
1800
1900
0e00
0000
ffc0
ffc0
ENDCHAR
STARTCHAR <unknown>
ENCODING 234
SWIDTH 42 0
DWIDTH 12 0
BBX 6 8 3 3
BITMAP
cc
cc
00
78
cc
cc
cc
78
ENDCHAR
STARTCHAR <unknown>
ENCODING 235
SWIDTH 42 0
DWIDTH 0 0
BBX 0 0 0 0
BITMAP
ENDCHAR
STARTCHAR <unknown>
ENCODING 236
SWIDTH 42 0
DWIDTH 12 0
BBX 10 14 1 0
BITMAP
ffc0
ccc0
ccc0
ccc0
ccc0
c0c0
c0c0
c0c0
c0c0
c0c0
c0c0
c0c0
c0c0
ffc0
ENDCHAR
STARTCHAR <unknown>
ENCODING 237
SWIDTH 42 0
DWIDTH 0 0
BBX 0 0 0 0
BITMAP
ENDCHAR
STARTCHAR <unknown>
ENCODING 238
SWIDTH 42 0
DWIDTH 12 0
BBX 9 11 1 0
BITMAP
ff80
ff80
0800
3e00
6b00
6b00
6b00
6b00
3e00
0800
0800
ENDCHAR
STARTCHAR <unknown>
ENCODING 239
SWIDTH 42 0
DWIDTH 12 0
BBX 9 12 1 1
BITMAP
6180
6180
0000
3e00
6300
c180
8080
8080
8080
c180
6300
3e00
ENDCHAR
STARTCHAR <unknown>
ENCODING 240
SWIDTH 42 0
DWIDTH 12 0
BBX 9 9 1 1
BITMAP
3e00
6b00
c980
aa80
9c80
9480
f780
6300
3e00
ENDCHAR
STARTCHAR <unknown>
ENCODING 241
SWIDTH 42 0
DWIDTH 0 0
BBX 0 0 0 0
BITMAP
ENDCHAR
STARTCHAR <unknown>
ENCODING 242
SWIDTH 42 0
DWIDTH 0 0
BBX 0 0 0 0
BITMAP
ENDCHAR
STARTCHAR <unknown>
ENCODING 243
SWIDTH 42 0
DWIDTH 0 0
BBX 0 0 0 0
BITMAP
ENDCHAR
STARTCHAR <unknown>
ENCODING 244
SWIDTH 42 0
DWIDTH 12 0
BBX 11 11 0 0
BITMAP
c000
6f00
3980
78c0
6c40
6640
6340
61c0
31c0
1f60
0020
ENDCHAR
STARTCHAR <unknown>
ENCODING 245
SWIDTH 42 0
DWIDTH 0 0
BBX 0 0 0 0
BITMAP
ENDCHAR
STARTCHAR <unknown>
ENCODING 246
SWIDTH 42 0
DWIDTH 0 0
BBX 0 0 0 0
BITMAP
ENDCHAR
STARTCHAR <unknown>
ENCODING 247
SWIDTH 42 0
DWIDTH 12 0
BBX 9 15 1 -2
BITMAP
0800
0800
0800
3e00
6b00
c980
c980
c980
c980
c980
6b00
3e00
0800
0800
0800
ENDCHAR
STARTCHAR <unknown>
ENCODING 248
SWIDTH 42 0
DWIDTH 0 0
BBX 0 0 0 0
BITMAP
ENDCHAR
STARTCHAR <unknown>
ENCODING 249
SWIDTH 42 0
DWIDTH 0 0
BBX 0 0 0 0
BITMAP
ENDCHAR
STARTCHAR <unknown>
ENCODING 250
SWIDTH 42 0
DWIDTH 12 0
BBX 9 15 1 -2
BITMAP
0c00
0c00
0c00
3f00
6f80
4d80
cc00
cc00
cc00
cc00
ec80
6d80
3f00
0c00
0c00
ENDCHAR
STARTCHAR <unknown>
ENCODING 251
SWIDTH 42 0
DWIDTH 12 0
BBX 10 8 1 4
BITMAP
1000
2000
4000
ffc0
ffc0
4000
2000
1000
ENDCHAR
STARTCHAR <unknown>
ENCODING 252
SWIDTH 42 0
DWIDTH 12 0
BBX 10 14 1 -1
BITMAP
0c00
0c00
1a00
1a00
3100
3100
6080
6080
c040
c040
ffc0
0000
ffc0
ffc0
ENDCHAR
STARTCHAR <unknown>
ENCODING 253
SWIDTH 42 0
DWIDTH 12 0
BBX 10 8 1 4
BITMAP
0200
0100
0080
ffc0
ffc0
0080
0100
0200
ENDCHAR
STARTCHAR <unknown>
ENCODING 254
SWIDTH 42 0
DWIDTH 12 0
BBX 11 11 0 1
BITMAP
0400
0e00
1b00
3180
60c0
c060
60c0
3180
1b00
0e00
0400
ENDCHAR
STARTCHAR <unknown>
ENCODING 255
SWIDTH 42 0
DWIDTH 0 0
BBX 0 0 0 0
BITMAP
ENDCHAR
ENDFONT
